<svg width="6000" height="2420" viewBox="0 0 6000 2420" fill="none" xmlns="http://www.w3.org/2000/svg">
<path d="M1267.01 1169.51C1267.01 1143.39 1283.63 1121.43 1316.88 1103.62C1350.12 1084.62 1383.37 1075.12 1416.61 1075.12C1451.05 1075.12 1473.01 1087.59 1482.51 1112.52L1660.61 1618.32L1794.19 1178.42C1803.69 1147.55 1829.81 1132.11 1872.55 1132.11C1915.29 1132.11 1941.42 1147.55 1950.92 1178.42L2082.71 1620.11L2262.59 1112.52C2272.09 1087.59 2294.05 1075.12 2328.49 1075.12C2360.55 1075.12 2393.2 1084.62 2426.44 1103.62C2459.69 1122.61 2476.31 1145.17 2476.31 1171.29C2476.31 1184.35 2473.94 1195.04 2469.19 1203.35L2194.91 1908.63C2184.23 1935.94 2153.95 1949.59 2104.08 1949.59C2051.84 1949.59 2020.37 1935.94 2009.69 1908.63L1872.55 1520.37L1737.19 1906.85C1726.51 1935.34 1693.86 1949.59 1639.24 1949.59C1590.56 1949.59 1560.88 1935.34 1550.19 1906.85L1275.92 1203.35C1269.98 1191.48 1267.01 1180.2 1267.01 1169.51ZM2512.57 783.036C2512.57 752.165 2524.44 726.044 2548.19 704.672C2573.12 682.113 2603.4 670.833 2639.02 670.833C2673.45 670.833 2702.54 682.113 2726.29 704.672C2751.22 726.044 2763.69 752.165 2763.69 783.036C2763.69 812.719 2751.22 838.841 2726.29 861.4C2702.54 883.959 2673.45 895.239 2639.02 895.239C2603.4 895.239 2573.12 883.959 2548.19 861.4C2524.44 838.841 2512.57 812.719 2512.57 783.036ZM2525.04 1856.98V1155.26C2525.04 1133.89 2535.72 1116.68 2557.09 1103.62C2578.47 1090.56 2605.78 1084.02 2639.02 1084.02C2672.27 1084.02 2699.57 1090.56 2720.95 1103.62C2743.51 1116.68 2754.79 1133.89 2754.79 1155.26V1856.98C2754.79 1874.79 2742.91 1891.41 2719.17 1906.85C2696.61 1922.28 2669.89 1930 2639.02 1930C2606.96 1930 2579.65 1922.88 2557.09 1908.63C2535.72 1893.19 2525.04 1875.98 2525.04 1856.98ZM2894.62 1856.98V661.928C2894.62 640.556 2904.71 623.34 2924.9 610.279C2946.27 597.218 2974.17 590.688 3008.61 590.688C3040.66 590.688 3067.97 597.218 3090.53 610.279C3113.09 623.34 3124.37 640.556 3124.37 661.928V1856.98C3124.37 1874.79 3112.5 1891.41 3088.75 1906.85C3066.19 1922.28 3039.48 1930 3008.61 1930C2976.55 1930 2949.24 1922.88 2926.68 1908.63C2905.31 1893.19 2894.62 1875.98 2894.62 1856.98ZM3215.33 1709.16C3215.33 1612.98 3250.95 1545.3 3322.19 1506.12C3393.43 1466.94 3496.13 1447.35 3630.3 1447.35H3703.32V1424.2C3703.32 1380.26 3690.26 1342.27 3664.14 1310.21C3639.21 1276.97 3600.02 1260.34 3546.59 1260.34C3493.16 1260.34 3447.45 1269.84 3409.46 1288.84C3371.46 1306.65 3349.5 1315.55 3343.56 1315.55C3319.81 1315.55 3300.82 1303.68 3286.57 1279.93C3272.32 1256.19 3265.2 1230.07 3265.2 1201.57C3265.2 1167.14 3295.47 1137.45 3356.03 1112.52C3417.77 1086.4 3482.48 1073.34 3550.16 1073.34C3679.57 1073.34 3775.75 1106.58 3838.68 1173.07C3901.61 1238.38 3933.07 1320.9 3933.07 1420.63V1856.98C3933.07 1877.16 3922.38 1894.38 3901.01 1908.63C3879.64 1922.88 3852.93 1930 3820.87 1930C3791.18 1930 3766.25 1922.88 3746.07 1908.63C3727.07 1894.38 3717.57 1877.16 3717.57 1856.98V1805.33C3635.64 1899.13 3545.41 1946.03 3446.86 1946.03C3379.18 1946.03 3323.37 1925.84 3279.44 1885.47C3236.7 1845.11 3215.33 1786.33 3215.33 1709.16ZM3445.08 1678.88C3445.08 1710.94 3453.39 1735.28 3470.01 1751.9C3487.82 1767.34 3510.97 1775.05 3539.47 1775.05C3577.46 1775.05 3614.27 1757.24 3649.89 1721.62C3685.51 1686 3703.32 1646.82 3703.32 1604.08V1566.68H3676.61C3604.18 1566.68 3547.19 1574.39 3505.63 1589.83C3465.26 1604.08 3445.08 1633.76 3445.08 1678.88ZM4051.87 1856.98V661.928C4051.87 640.556 4061.96 623.34 4082.15 610.279C4103.52 597.218 4130.83 590.688 4164.07 590.688C4197.32 590.688 4225.22 597.218 4247.78 610.279C4270.34 623.34 4281.62 640.556 4281.62 661.928V1208.69C4301.8 1170.7 4331.49 1138.64 4370.67 1112.52C4411.04 1086.4 4457.34 1073.34 4509.59 1073.34C4596.26 1073.34 4670.47 1108.96 4732.21 1180.2C4795.14 1251.44 4826.6 1336.33 4826.6 1434.88V1580.92C4826.6 1677.1 4795.14 1761.99 4732.21 1835.61C4669.28 1909.22 4596.85 1946.03 4514.93 1946.03C4461.5 1946.03 4411.63 1932.37 4365.32 1905.07C4319.02 1876.57 4286.37 1843.32 4267.37 1805.33V1856.98C4267.37 1874.79 4256.68 1891.41 4235.31 1906.85C4215.13 1922.28 4191.38 1930 4164.07 1930C4132.01 1930 4105.3 1922.88 4083.93 1908.63C4062.55 1893.19 4051.87 1875.98 4051.87 1856.98ZM4281.62 1612.98C4281.62 1635.54 4297.65 1663.44 4329.7 1696.69C4362.95 1728.75 4400.35 1744.78 4441.91 1744.78C4483.46 1744.78 4519.68 1728.15 4550.55 1694.91C4581.42 1660.48 4596.85 1622.48 4596.85 1580.92V1434.88C4596.85 1393.33 4581.42 1356.52 4550.55 1324.46C4519.68 1291.21 4482.87 1274.59 4440.13 1274.59C4399.76 1274.59 4362.95 1289.43 4329.7 1319.12C4297.65 1348.8 4281.62 1387.39 4281.62 1434.88V1612.98ZM4872.12 1792.86C4872.12 1771.49 4879.83 1749.53 4895.27 1726.97C4910.71 1703.22 4928.52 1691.35 4948.7 1691.35C4961.76 1691.35 4977.79 1697.88 4996.79 1710.94C5016.97 1724 5043.09 1737.65 5075.15 1751.9C5107.21 1764.96 5145.2 1771.49 5189.13 1771.49C5275.81 1771.49 5319.15 1745.96 5319.15 1694.91C5319.15 1666.41 5304.31 1643.85 5274.62 1627.23C5246.13 1610.61 5211.1 1596.95 5169.54 1586.27C5129.17 1575.58 5088.21 1563.11 5046.65 1548.87C5005.1 1533.43 4969.48 1508.5 4939.79 1474.06C4911.3 1438.44 4897.05 1393.33 4897.05 1338.71C4897.05 1266.28 4922.58 1203.95 4973.63 1151.7C5024.69 1099.46 5105.43 1073.34 5215.85 1073.34C5289.46 1073.34 5354.77 1084.62 5411.76 1107.18C5469.94 1129.74 5499.03 1157.05 5499.03 1189.1C5499.03 1209.29 5490.72 1233.04 5474.09 1260.34C5458.66 1286.47 5439.07 1299.53 5415.32 1299.53C5405.82 1299.53 5379.7 1291.21 5336.96 1274.59C5295.4 1256.78 5256.22 1247.88 5219.41 1247.88C5179.04 1247.88 5148.17 1256.19 5126.8 1272.81C5105.43 1289.43 5094.74 1307.84 5094.74 1328.02C5094.74 1348.21 5105.43 1364.83 5126.8 1377.89C5148.17 1390.95 5174.29 1401.04 5205.16 1408.17C5237.22 1415.29 5271.65 1425.38 5308.46 1438.44C5345.27 1450.32 5379.11 1464.57 5409.98 1481.19C5442.04 1497.81 5468.75 1523.93 5490.12 1559.55C5511.5 1593.98 5522.18 1636.13 5522.18 1686C5522.18 1766.74 5493.09 1830.26 5434.91 1876.57C5377.92 1922.88 5297.78 1946.03 5194.48 1946.03C5105.43 1946.03 5029.44 1930.59 4966.51 1899.72C4903.58 1868.85 4872.12 1833.23 4872.12 1792.86Z" fill="#55595D"/>
<path d="M685.021 852.275L685.021 1239.44M685.021 1849.06L685.021 1408.24M1020.77 1072.53L685.021 1408.24M685.021 1408.24L685.021 1270.19V1239.44M1294.7 1849.06L685.021 1239.44" stroke="#55595D" stroke-width="205.505" stroke-linecap="round" stroke-linejoin="round"/>
<path d="M430 795.816C561.874 632.754 695.029 504.893 768.199 461.051C841.37 417.208 1118.62 290.318 1297.47 568.367C1351.27 652.009 1506.28 897.676 1320.52 981.133C1021.11 1115.65 1066.49 611.883 820.105 561.741C729.663 543.336 624.548 555.258 430 795.816Z" fill="#E71D36"/>
<ellipse cx="1248.57" cy="852.275" rx="114.531" ry="114.519" fill="#55595D"/>
</svg>
