<svg width="658" height="265" viewBox="0 0 658 265" fill="none" xmlns="http://www.w3.org/2000/svg">
<path d="M138.744 128.085C138.744 125.224 140.564 122.819 144.205 120.869C147.845 118.789 151.486 117.748 155.126 117.748C158.897 117.748 161.302 119.114 162.342 121.844L181.845 177.232L196.472 129.06C197.512 125.68 200.373 123.989 205.053 123.989C209.734 123.989 212.594 125.68 213.634 129.06L228.066 177.427L247.764 121.844C248.804 119.114 251.21 117.748 254.98 117.748C258.491 117.748 262.066 118.789 265.707 120.869C269.347 122.949 271.167 125.419 271.167 128.28C271.167 129.71 270.907 130.88 270.387 131.79L240.353 209.021C239.183 212.011 235.867 213.507 230.407 213.507C224.686 213.507 221.24 212.011 220.07 209.021L205.053 166.505L190.231 208.826C189.061 211.946 185.486 213.507 179.505 213.507C174.174 213.507 170.924 211.946 169.753 208.826L139.719 131.79C139.069 130.49 138.744 129.255 138.744 128.085ZM275.138 85.764C275.138 82.3836 276.438 79.5232 279.038 77.1828C281.769 74.7125 285.084 73.4773 288.985 73.4773C292.755 73.4773 295.941 74.7125 298.541 77.1828C301.272 79.5232 302.637 82.3836 302.637 85.764C302.637 89.0145 301.272 91.8749 298.541 94.3452C295.941 96.8155 292.755 98.0507 288.985 98.0507C285.084 98.0507 281.769 96.8155 279.038 94.3452C276.438 91.8749 275.138 89.0145 275.138 85.764ZM276.503 203.365V126.525C276.503 124.184 277.673 122.299 280.014 120.869C282.354 119.439 285.344 118.724 288.985 118.724C292.625 118.724 295.616 119.439 297.956 120.869C300.426 122.299 301.662 124.184 301.662 126.525V203.365C301.662 205.315 300.361 207.136 297.761 208.826C295.291 210.516 292.365 211.361 288.985 211.361C285.474 211.361 282.484 210.581 280.014 209.021C277.673 207.331 276.503 205.446 276.503 203.365ZM316.974 203.365V72.5022C316.974 70.1619 318.079 68.2766 320.29 66.8464C322.63 65.4162 325.685 64.7011 329.456 64.7011C332.966 64.7011 335.957 65.4162 338.427 66.8464C340.898 68.2766 342.133 70.1619 342.133 72.5022V203.365C342.133 205.315 340.833 207.136 338.232 208.826C335.762 210.516 332.836 211.361 329.456 211.361C325.945 211.361 322.955 210.581 320.485 209.021C318.144 207.331 316.974 205.446 316.974 203.365ZM352.093 187.178C352.093 176.647 355.993 169.236 363.794 164.945C371.595 160.654 382.842 158.509 397.534 158.509H405.53V155.974C405.53 151.163 404.1 147.002 401.24 143.492C398.509 139.851 394.219 138.031 388.368 138.031C382.517 138.031 377.511 139.071 373.351 141.152C369.19 143.102 366.785 144.077 366.135 144.077C363.534 144.077 361.454 142.777 359.894 140.177C358.334 137.576 357.554 134.716 357.554 131.595C357.554 127.825 360.869 124.574 367.5 121.844C374.261 118.984 381.347 117.553 388.758 117.553C402.93 117.553 413.461 121.194 420.352 128.475C427.243 135.626 430.689 144.662 430.689 155.584V203.365C430.689 205.576 429.518 207.461 427.178 209.021C424.838 210.581 421.912 211.361 418.402 211.361C415.151 211.361 412.421 210.581 410.211 209.021C408.131 207.461 407.09 205.576 407.09 203.365V197.709C398.119 207.981 388.238 213.117 377.446 213.117C370.035 213.117 363.924 210.906 359.114 206.486C354.433 202.065 352.093 195.629 352.093 187.178ZM377.251 183.863C377.251 187.373 378.161 190.038 379.982 191.859C381.932 193.549 384.467 194.394 387.588 194.394C391.748 194.394 395.779 192.444 399.679 188.543C403.58 184.643 405.53 180.352 405.53 175.671V171.576H402.605C394.674 171.576 388.433 172.421 383.882 174.111C379.462 175.671 377.251 178.922 377.251 183.863ZM443.698 203.365V72.5022C443.698 70.1619 444.803 68.2766 447.013 66.8464C449.353 65.4162 452.344 64.7011 455.984 64.7011C459.625 64.7011 462.68 65.4162 465.15 66.8464C467.621 68.2766 468.856 70.1619 468.856 72.5022V132.375C471.066 128.215 474.317 124.704 478.607 121.844C483.028 118.984 488.099 117.553 493.819 117.553C503.311 117.553 511.437 121.454 518.198 129.255C525.089 137.056 528.534 146.352 528.534 157.144V173.136C528.534 183.668 525.089 192.964 518.198 201.025C511.307 209.086 503.376 213.117 494.405 213.117C488.554 213.117 483.093 211.621 478.022 208.631C472.952 205.511 469.376 201.87 467.296 197.709V203.365C467.296 205.315 466.126 207.136 463.785 208.826C461.575 210.516 458.975 211.361 455.984 211.361C452.474 211.361 449.548 210.581 447.208 209.021C444.868 207.331 443.698 205.446 443.698 203.365ZM468.856 176.647C468.856 179.117 470.611 182.172 474.122 185.813C477.762 189.323 481.858 191.079 486.408 191.079C490.959 191.079 494.925 189.258 498.305 185.618C501.686 181.847 503.376 177.687 503.376 173.136V157.144C503.376 152.593 501.686 148.563 498.305 145.052C494.925 141.412 490.894 139.591 486.213 139.591C481.793 139.591 477.762 141.217 474.122 144.467C470.611 147.718 468.856 151.943 468.856 157.144V176.647ZM533.518 196.344C533.518 194.004 534.363 191.599 536.053 189.128C537.744 186.528 539.694 185.228 541.904 185.228C543.334 185.228 545.09 185.943 547.17 187.373C549.38 188.803 552.241 190.298 555.751 191.859C559.262 193.289 563.422 194.004 568.233 194.004C577.724 194.004 582.47 191.209 582.47 185.618C582.47 182.497 580.845 180.027 577.594 178.207C574.474 176.387 570.638 174.891 566.088 173.721C561.667 172.551 557.181 171.186 552.631 169.626C548.08 167.935 544.18 165.205 540.929 161.434C537.809 157.534 536.248 152.593 536.248 146.612C536.248 138.681 539.044 131.855 544.635 126.135C550.225 120.414 559.067 117.553 571.158 117.553C579.219 117.553 586.37 118.789 592.611 121.259C598.982 123.729 602.168 126.72 602.168 130.23C602.168 132.44 601.257 135.041 599.437 138.031C597.747 140.892 595.602 142.322 593.001 142.322C591.961 142.322 589.101 141.412 584.42 139.591C579.869 137.641 575.579 136.666 571.548 136.666C567.128 136.666 563.747 137.576 561.407 139.396C559.067 141.217 557.896 143.232 557.896 145.442C557.896 147.653 559.067 149.473 561.407 150.903C563.747 152.333 566.608 153.438 569.988 154.218C573.499 154.999 577.269 156.104 581.3 157.534C585.33 158.834 589.036 160.394 592.416 162.215C595.927 164.035 598.852 166.895 601.192 170.796C603.533 174.566 604.703 179.182 604.703 184.643C604.703 193.484 601.517 200.44 595.147 205.511C588.906 210.581 580.129 213.117 568.818 213.117C559.067 213.117 550.745 211.426 543.854 208.046C536.964 204.665 533.518 200.765 533.518 196.344Z" fill="#495057"/>
<path d="M75.0137 93.3281L75.0137 135.725M75.0137 202.48L75.0137 154.209M111.779 117.447L75.0137 154.209M75.0137 154.209L75.0137 139.092V135.725M141.776 202.48L75.0137 135.725" stroke="#495057" stroke-width="22.5037" stroke-linecap="round" stroke-linejoin="round"/>
<path d="M47.087 87.1455C61.5277 69.2896 76.1087 55.2882 84.1212 50.4873C92.1337 45.6864 122.494 31.7914 142.078 62.2389C147.97 71.398 164.944 98.2996 144.602 107.439C111.816 122.169 116.786 67.0041 89.8051 61.5134C79.9013 59.4979 68.3908 60.8034 47.087 87.1455Z" fill="#E71D36"/>
<ellipse cx="136.725" cy="93.3274" rx="12.5416" ry="12.5403" fill="#495057"/>
</svg>
